<mxfile host="Electron" modified="2025-07-05T09:42:34.863Z" agent="Mozilla/5.0 (X11; Linux x86_64) AppleWebKit/537.36 (KHTML, like Gecko) draw.io/22.1.2 Chrome/114.0.5735.289 Electron/25.9.4 Safari/537.36" etag="nu60NTRWQ5BgMj_FNQ2M" version="22.1.2" type="device" pages="3">
  <diagram name="pendulum" id="aWRQ98W_60_vDgfZwftD">
    <mxGraphModel dx="644" dy="563" grid="0" gridSize="10" guides="1" tooltips="1" connect="1" arrows="1" fold="1" page="1" pageScale="1" pageWidth="850" pageHeight="1100" math="1" shadow="0">
      <root>
        <mxCell id="0" />
        <mxCell id="1" parent="0" />
        <mxCell id="rrLqEprCOzV6jfEtbyF6-1" value="" style="endArrow=none;html=1;rounded=0;strokeWidth=3;strokeColor=#2A3244;" parent="1" edge="1">
          <mxGeometry width="50" height="50" relative="1" as="geometry">
            <mxPoint x="120" y="80" as="sourcePoint" />
            <mxPoint x="200" y="80" as="targetPoint" />
          </mxGeometry>
        </mxCell>
        <mxCell id="rrLqEprCOzV6jfEtbyF6-2" value="" style="endArrow=none;html=1;rounded=0;strokeWidth=3;strokeColor=#2A3244;" parent="1" edge="1">
          <mxGeometry width="50" height="50" relative="1" as="geometry">
            <mxPoint x="120" y="80" as="sourcePoint" />
            <mxPoint x="130" y="70" as="targetPoint" />
          </mxGeometry>
        </mxCell>
        <mxCell id="rrLqEprCOzV6jfEtbyF6-3" value="" style="endArrow=none;html=1;rounded=0;strokeWidth=3;strokeColor=#2A3244;" parent="1" edge="1">
          <mxGeometry width="50" height="50" relative="1" as="geometry">
            <mxPoint x="140" y="80" as="sourcePoint" />
            <mxPoint x="150" y="70" as="targetPoint" />
          </mxGeometry>
        </mxCell>
        <mxCell id="rrLqEprCOzV6jfEtbyF6-4" value="" style="endArrow=none;html=1;rounded=0;strokeWidth=3;strokeColor=#2A3244;" parent="1" edge="1">
          <mxGeometry width="50" height="50" relative="1" as="geometry">
            <mxPoint x="160" y="80" as="sourcePoint" />
            <mxPoint x="170" y="70" as="targetPoint" />
          </mxGeometry>
        </mxCell>
        <mxCell id="rrLqEprCOzV6jfEtbyF6-5" value="" style="endArrow=none;html=1;rounded=0;strokeWidth=3;strokeColor=#2A3244;" parent="1" edge="1">
          <mxGeometry width="50" height="50" relative="1" as="geometry">
            <mxPoint x="180" y="80" as="sourcePoint" />
            <mxPoint x="190" y="70" as="targetPoint" />
          </mxGeometry>
        </mxCell>
        <mxCell id="rrLqEprCOzV6jfEtbyF6-6" value="" style="endArrow=none;html=1;rounded=0;strokeWidth=3;strokeColor=#2A3244;" parent="1" edge="1">
          <mxGeometry width="50" height="50" relative="1" as="geometry">
            <mxPoint x="200" y="80" as="sourcePoint" />
            <mxPoint x="210" y="70" as="targetPoint" />
          </mxGeometry>
        </mxCell>
        <mxCell id="rrLqEprCOzV6jfEtbyF6-8" value="" style="endArrow=none;html=1;rounded=0;strokeColor=#2A3244;strokeWidth=3;" parent="1" edge="1">
          <mxGeometry width="50" height="50" relative="1" as="geometry">
            <mxPoint x="160" y="80" as="sourcePoint" />
            <mxPoint x="200" y="200" as="targetPoint" />
          </mxGeometry>
        </mxCell>
        <mxCell id="rrLqEprCOzV6jfEtbyF6-9" value="\(m\)" style="ellipse;whiteSpace=wrap;html=1;aspect=fixed;fillColor=#4579AC;strokeColor=#2A3244;fontColor=#FFFFFF;" parent="1" vertex="1">
          <mxGeometry x="183" y="190" width="40" height="40" as="geometry" />
        </mxCell>
        <mxCell id="rrLqEprCOzV6jfEtbyF6-10" value="" style="endArrow=classic;html=1;rounded=0;strokeColor=#E8C13F;strokeWidth=2;" parent="1" edge="1">
          <mxGeometry width="50" height="50" relative="1" as="geometry">
            <mxPoint x="186" y="221" as="sourcePoint" />
            <mxPoint x="163" y="233" as="targetPoint" />
          </mxGeometry>
        </mxCell>
        <mxCell id="rrLqEprCOzV6jfEtbyF6-11" value="" style="endArrow=none;html=1;rounded=0;strokeColor=#E8C13F;strokeWidth=2;" parent="1" edge="1">
          <mxGeometry width="50" height="50" relative="1" as="geometry">
            <mxPoint x="222" y="203" as="sourcePoint" />
            <mxPoint x="270" y="180" as="targetPoint" />
          </mxGeometry>
        </mxCell>
        <mxCell id="rrLqEprCOzV6jfEtbyF6-13" value="" style="endArrow=none;html=1;rounded=0;strokeWidth=3;strokeColor=#2A3244;" parent="1" edge="1">
          <mxGeometry width="50" height="50" relative="1" as="geometry">
            <mxPoint x="130" y="80" as="sourcePoint" />
            <mxPoint x="140" y="70" as="targetPoint" />
          </mxGeometry>
        </mxCell>
        <mxCell id="rrLqEprCOzV6jfEtbyF6-14" value="" style="endArrow=none;html=1;rounded=0;strokeWidth=3;strokeColor=#2A3244;" parent="1" edge="1">
          <mxGeometry width="50" height="50" relative="1" as="geometry">
            <mxPoint x="150" y="80" as="sourcePoint" />
            <mxPoint x="160" y="70" as="targetPoint" />
          </mxGeometry>
        </mxCell>
        <mxCell id="rrLqEprCOzV6jfEtbyF6-15" value="" style="endArrow=none;html=1;rounded=0;strokeWidth=3;strokeColor=#2A3244;" parent="1" edge="1">
          <mxGeometry width="50" height="50" relative="1" as="geometry">
            <mxPoint x="170" y="80" as="sourcePoint" />
            <mxPoint x="180" y="70" as="targetPoint" />
          </mxGeometry>
        </mxCell>
        <mxCell id="rrLqEprCOzV6jfEtbyF6-16" value="" style="endArrow=none;html=1;rounded=0;strokeWidth=3;strokeColor=#2A3244;" parent="1" edge="1">
          <mxGeometry width="50" height="50" relative="1" as="geometry">
            <mxPoint x="190" y="80" as="sourcePoint" />
            <mxPoint x="200" y="70" as="targetPoint" />
          </mxGeometry>
        </mxCell>
        <mxCell id="rrLqEprCOzV6jfEtbyF6-12" value="" style="endArrow=none;html=1;rounded=0;strokeColor=#E8C13F;strokeWidth=2;" parent="1" edge="1">
          <mxGeometry width="50" height="50" relative="1" as="geometry">
            <mxPoint x="160" y="83" as="sourcePoint" />
            <mxPoint x="218" y="60" as="targetPoint" />
          </mxGeometry>
        </mxCell>
        <mxCell id="rrLqEprCOzV6jfEtbyF6-17" value="" style="endArrow=classic;startArrow=classic;html=1;rounded=0;strokeColor=#E8C13F;strokeWidth=2;endSize=4;startSize=4;" parent="1" edge="1">
          <mxGeometry width="50" height="50" relative="1" as="geometry">
            <mxPoint x="215" y="63" as="sourcePoint" />
            <mxPoint x="265" y="183" as="targetPoint" />
          </mxGeometry>
        </mxCell>
        <mxCell id="rrLqEprCOzV6jfEtbyF6-18" value="" style="endArrow=classic;html=1;rounded=0;strokeColor=#E8C13F;strokeWidth=2;" parent="1" edge="1">
          <mxGeometry width="50" height="50" relative="1" as="geometry">
            <mxPoint x="140" y="110" as="sourcePoint" />
            <mxPoint x="140" y="140" as="targetPoint" />
          </mxGeometry>
        </mxCell>
        <mxCell id="rrLqEprCOzV6jfEtbyF6-20" value="\(-g\)" style="text;html=1;strokeColor=none;fillColor=none;align=center;verticalAlign=middle;whiteSpace=wrap;rounded=0;fontColor=#E8C13F;fontSize=16;" parent="1" vertex="1">
          <mxGeometry x="120" y="140" width="30" height="30" as="geometry" />
        </mxCell>
        <mxCell id="rrLqEprCOzV6jfEtbyF6-21" value="\(l\)" style="text;html=1;strokeColor=none;fillColor=none;align=center;verticalAlign=middle;whiteSpace=wrap;rounded=0;fontColor=#E8C13F;fontSize=16;" parent="1" vertex="1">
          <mxGeometry x="240" y="100" width="30" height="30" as="geometry" />
        </mxCell>
        <mxCell id="rrLqEprCOzV6jfEtbyF6-25" value="" style="verticalLabelPosition=bottom;verticalAlign=top;html=1;shape=mxgraph.basic.arc;startAngle=0.26221862598609874;endAngle=0.4439046270967112;aspect=fixed;fillColor=none;strokeColor=#E8C13F;strokeWidth=2;" parent="1" vertex="1">
          <mxGeometry x="130" y="50" width="60" height="60" as="geometry" />
        </mxCell>
        <mxCell id="rrLqEprCOzV6jfEtbyF6-26" value="\(q\)" style="text;html=1;strokeColor=none;fillColor=none;align=center;verticalAlign=middle;whiteSpace=wrap;rounded=0;fontColor=#E8C13F;fontSize=16;" parent="1" vertex="1">
          <mxGeometry x="179" y="87" width="30" height="30" as="geometry" />
        </mxCell>
        <mxCell id="rrLqEprCOzV6jfEtbyF6-27" value="\(mg\cdot\cos(q)\)" style="text;html=1;strokeColor=none;fillColor=none;align=center;verticalAlign=middle;whiteSpace=wrap;rounded=0;fontColor=#E8C13F;fontSize=16;" parent="1" vertex="1">
          <mxGeometry x="71" y="214" width="90" height="30" as="geometry" />
        </mxCell>
      </root>
    </mxGraphModel>
  </diagram>
  <diagram id="QfO3pjU5wmex8PeltC_p" name="venn">
    <mxGraphModel dx="644" dy="563" grid="0" gridSize="10" guides="1" tooltips="1" connect="1" arrows="1" fold="1" page="1" pageScale="1" pageWidth="850" pageHeight="1100" math="1" shadow="0">
      <root>
        <mxCell id="0" />
        <mxCell id="1" parent="0" />
        <mxCell id="5EfSo17ABzTx8_z19gRL-1" value="" style="ellipse;whiteSpace=wrap;html=1;aspect=fixed;strokeColor=none;fillColor=#2A3244;" parent="1" vertex="1">
          <mxGeometry x="121" y="32" width="330" height="330" as="geometry" />
        </mxCell>
        <mxCell id="5EfSo17ABzTx8_z19gRL-2" value="" style="ellipse;whiteSpace=wrap;html=1;aspect=fixed;strokeColor=none;fillColor=#4579AC;" parent="1" vertex="1">
          <mxGeometry x="156.5" y="96" width="260" height="260" as="geometry" />
        </mxCell>
        <mxCell id="5EfSo17ABzTx8_z19gRL-3" value="" style="ellipse;whiteSpace=wrap;html=1;aspect=fixed;fillColor=#FAEBD7;strokeColor=none;" parent="1" vertex="1">
          <mxGeometry x="199" y="176" width="175" height="175" as="geometry" />
        </mxCell>
        <mxCell id="5EfSo17ABzTx8_z19gRL-4" value="Lyapunov Stable:&lt;br&gt;\(V(\mathbf{x}) \le \epsilon\)" style="text;html=1;strokeColor=none;fillColor=none;align=center;verticalAlign=middle;whiteSpace=wrap;rounded=0;fontSize=16;fontColor=#FFFFFF;" parent="1" vertex="1">
          <mxGeometry x="217.63" y="47" width="136.75" height="45" as="geometry" />
        </mxCell>
        <mxCell id="5EfSo17ABzTx8_z19gRL-5" value="Asymptotically Stable:&lt;br&gt;\(\dot{V}(\mathbf{x},\dot{\mathbf{x}}) &amp;lt; 0\)" style="text;html=1;strokeColor=none;fillColor=none;align=center;verticalAlign=middle;whiteSpace=wrap;rounded=0;fontSize=16;fontColor=#FFFFFF;" parent="1" vertex="1">
          <mxGeometry x="203" y="124" width="166" height="49" as="geometry" />
        </mxCell>
        <mxCell id="5EfSo17ABzTx8_z19gRL-6" value="Exponentially Stable: &lt;br&gt;\(\dot{V}(\mathbf{x},\dot{\mathbf{x}}) \le -\alpha V(\mathbf{x})\)" style="text;html=1;strokeColor=none;fillColor=none;align=center;verticalAlign=middle;whiteSpace=wrap;rounded=0;fontSize=16;fontColor=#2A3244;" parent="1" vertex="1">
          <mxGeometry x="203" y="239" width="167" height="49" as="geometry" />
        </mxCell>
      </root>
    </mxGraphModel>
  </diagram>
  <diagram id="nYehwVauQmjGr-udGJn9" name="mass_spring_damper">
    <mxGraphModel dx="758" dy="662" grid="1" gridSize="10" guides="1" tooltips="1" connect="1" arrows="1" fold="1" page="1" pageScale="1" pageWidth="850" pageHeight="1100" math="1" shadow="0">
      <root>
        <mxCell id="0" />
        <mxCell id="1" parent="0" />
        <mxCell id="dFm8KE56Zzc0dGRcI-JT-1" value="&lt;font style=&quot;font-size: 24px;&quot;&gt;\(m\)&lt;/font&gt;" style="whiteSpace=wrap;html=1;aspect=fixed;fillColor=#4579AC;strokeColor=#2A3244;fontSize=20;fontColor=#FFFFFF;" parent="1" vertex="1">
          <mxGeometry x="240" y="120" width="80" height="80" as="geometry" />
        </mxCell>
        <mxCell id="Wc6JHS-sNSg-qs_0vJ1B-1" value="" style="endArrow=none;html=1;rounded=0;strokeWidth=2;strokeColor=#2A3244;entryX=0;entryY=0.25;entryDx=0;entryDy=0;" edge="1" parent="1">
          <mxGeometry width="50" height="50" relative="1" as="geometry">
            <mxPoint x="220" y="149" as="sourcePoint" />
            <mxPoint x="230" y="129" as="targetPoint" />
          </mxGeometry>
        </mxCell>
        <mxCell id="Wc6JHS-sNSg-qs_0vJ1B-2" value="" style="endArrow=none;html=1;rounded=0;strokeWidth=2;strokeColor=#2A3244;entryX=0;entryY=0.25;entryDx=0;entryDy=0;" edge="1" parent="1">
          <mxGeometry width="50" height="50" relative="1" as="geometry">
            <mxPoint x="230" y="129" as="sourcePoint" />
            <mxPoint x="240" y="149" as="targetPoint" />
          </mxGeometry>
        </mxCell>
        <mxCell id="Wc6JHS-sNSg-qs_0vJ1B-4" value="" style="endArrow=none;html=1;rounded=0;strokeWidth=2;strokeColor=#2A3244;entryX=0;entryY=0.25;entryDx=0;entryDy=0;" edge="1" parent="1">
          <mxGeometry width="50" height="50" relative="1" as="geometry">
            <mxPoint x="200" y="149" as="sourcePoint" />
            <mxPoint x="210" y="129" as="targetPoint" />
          </mxGeometry>
        </mxCell>
        <mxCell id="Wc6JHS-sNSg-qs_0vJ1B-5" value="" style="endArrow=none;html=1;rounded=0;strokeWidth=2;strokeColor=#2A3244;entryX=0;entryY=0.25;entryDx=0;entryDy=0;" edge="1" parent="1">
          <mxGeometry width="50" height="50" relative="1" as="geometry">
            <mxPoint x="210" y="129" as="sourcePoint" />
            <mxPoint x="220" y="149" as="targetPoint" />
          </mxGeometry>
        </mxCell>
        <mxCell id="Wc6JHS-sNSg-qs_0vJ1B-6" value="" style="endArrow=none;html=1;rounded=0;strokeWidth=2;strokeColor=#2A3244;entryX=0;entryY=0.25;entryDx=0;entryDy=0;" edge="1" parent="1">
          <mxGeometry width="50" height="50" relative="1" as="geometry">
            <mxPoint x="180" y="149" as="sourcePoint" />
            <mxPoint x="190" y="129" as="targetPoint" />
          </mxGeometry>
        </mxCell>
        <mxCell id="Wc6JHS-sNSg-qs_0vJ1B-7" value="" style="endArrow=none;html=1;rounded=0;strokeWidth=2;strokeColor=#2A3244;entryX=0;entryY=0.25;entryDx=0;entryDy=0;" edge="1" parent="1">
          <mxGeometry width="50" height="50" relative="1" as="geometry">
            <mxPoint x="190" y="129" as="sourcePoint" />
            <mxPoint x="200" y="149" as="targetPoint" />
          </mxGeometry>
        </mxCell>
        <mxCell id="Wc6JHS-sNSg-qs_0vJ1B-9" value="" style="endArrow=none;html=1;rounded=0;strokeWidth=2;strokeColor=#2A3244;entryX=0;entryY=0.25;entryDx=0;entryDy=0;" edge="1" parent="1">
          <mxGeometry width="50" height="50" relative="1" as="geometry">
            <mxPoint x="170" y="129" as="sourcePoint" />
            <mxPoint x="180" y="149" as="targetPoint" />
          </mxGeometry>
        </mxCell>
        <mxCell id="Wc6JHS-sNSg-qs_0vJ1B-10" value="" style="endArrow=none;html=1;rounded=0;strokeColor=#2A3244;strokeWidth=2;" edge="1" parent="1">
          <mxGeometry width="50" height="50" relative="1" as="geometry">
            <mxPoint x="190" y="161" as="sourcePoint" />
            <mxPoint x="220" y="161" as="targetPoint" />
          </mxGeometry>
        </mxCell>
        <mxCell id="Wc6JHS-sNSg-qs_0vJ1B-11" value="" style="endArrow=none;html=1;rounded=0;strokeColor=#2A3244;strokeWidth=2;" edge="1" parent="1">
          <mxGeometry width="50" height="50" relative="1" as="geometry">
            <mxPoint x="190" y="191" as="sourcePoint" />
            <mxPoint x="220" y="191" as="targetPoint" />
          </mxGeometry>
        </mxCell>
        <mxCell id="Wc6JHS-sNSg-qs_0vJ1B-12" value="" style="endArrow=none;html=1;rounded=0;strokeColor=#2A3244;strokeWidth=2;" edge="1" parent="1">
          <mxGeometry width="50" height="50" relative="1" as="geometry">
            <mxPoint x="190" y="161" as="sourcePoint" />
            <mxPoint x="190" y="191" as="targetPoint" />
          </mxGeometry>
        </mxCell>
        <mxCell id="Wc6JHS-sNSg-qs_0vJ1B-13" value="" style="endArrow=none;html=1;rounded=0;strokeColor=#2A3244;strokeWidth=2;" edge="1" parent="1">
          <mxGeometry width="50" height="50" relative="1" as="geometry">
            <mxPoint x="210" y="161" as="sourcePoint" />
            <mxPoint x="210" y="191" as="targetPoint" />
          </mxGeometry>
        </mxCell>
        <mxCell id="Wc6JHS-sNSg-qs_0vJ1B-14" value="" style="endArrow=none;html=1;rounded=0;entryX=0;entryY=0.75;entryDx=0;entryDy=0;strokeWidth=2;strokeColor=#2A3244;" edge="1" parent="1">
          <mxGeometry width="50" height="50" relative="1" as="geometry">
            <mxPoint x="210" y="176" as="sourcePoint" />
            <mxPoint x="240" y="176" as="targetPoint" />
          </mxGeometry>
        </mxCell>
        <mxCell id="Wc6JHS-sNSg-qs_0vJ1B-15" value="" style="endArrow=none;html=1;rounded=0;entryX=0;entryY=0.75;entryDx=0;entryDy=0;strokeWidth=2;strokeColor=#2A3244;" edge="1" parent="1">
          <mxGeometry width="50" height="50" relative="1" as="geometry">
            <mxPoint x="171" y="176" as="sourcePoint" />
            <mxPoint x="190" y="176" as="targetPoint" />
          </mxGeometry>
        </mxCell>
        <mxCell id="Wc6JHS-sNSg-qs_0vJ1B-16" value="" style="endArrow=none;html=1;rounded=0;strokeColor=#2A3244;strokeWidth=2;" edge="1" parent="1">
          <mxGeometry width="50" height="50" relative="1" as="geometry">
            <mxPoint x="170" y="200" as="sourcePoint" />
            <mxPoint x="170" y="120" as="targetPoint" />
          </mxGeometry>
        </mxCell>
        <mxCell id="Wc6JHS-sNSg-qs_0vJ1B-17" value="" style="endArrow=none;html=1;rounded=0;strokeWidth=2;strokeColor=#2A3244;" edge="1" parent="1">
          <mxGeometry width="50" height="50" relative="1" as="geometry">
            <mxPoint x="160" y="130" as="sourcePoint" />
            <mxPoint x="170" y="120" as="targetPoint" />
          </mxGeometry>
        </mxCell>
        <mxCell id="Wc6JHS-sNSg-qs_0vJ1B-18" value="" style="endArrow=none;html=1;rounded=0;strokeWidth=2;strokeColor=#2A3244;" edge="1" parent="1">
          <mxGeometry width="50" height="50" relative="1" as="geometry">
            <mxPoint x="160" y="140" as="sourcePoint" />
            <mxPoint x="170" y="130" as="targetPoint" />
          </mxGeometry>
        </mxCell>
        <mxCell id="Wc6JHS-sNSg-qs_0vJ1B-19" value="" style="endArrow=none;html=1;rounded=0;strokeWidth=2;strokeColor=#2A3244;" edge="1" parent="1">
          <mxGeometry width="50" height="50" relative="1" as="geometry">
            <mxPoint x="160" y="150" as="sourcePoint" />
            <mxPoint x="170" y="140" as="targetPoint" />
          </mxGeometry>
        </mxCell>
        <mxCell id="Wc6JHS-sNSg-qs_0vJ1B-20" value="" style="endArrow=none;html=1;rounded=0;strokeWidth=2;strokeColor=#2A3244;" edge="1" parent="1">
          <mxGeometry width="50" height="50" relative="1" as="geometry">
            <mxPoint x="160" y="160" as="sourcePoint" />
            <mxPoint x="170" y="150" as="targetPoint" />
          </mxGeometry>
        </mxCell>
        <mxCell id="Wc6JHS-sNSg-qs_0vJ1B-21" value="" style="endArrow=none;html=1;rounded=0;strokeWidth=2;strokeColor=#2A3244;" edge="1" parent="1">
          <mxGeometry width="50" height="50" relative="1" as="geometry">
            <mxPoint x="160" y="170" as="sourcePoint" />
            <mxPoint x="170" y="160" as="targetPoint" />
          </mxGeometry>
        </mxCell>
        <mxCell id="Wc6JHS-sNSg-qs_0vJ1B-22" value="" style="endArrow=none;html=1;rounded=0;strokeWidth=2;strokeColor=#2A3244;" edge="1" parent="1">
          <mxGeometry width="50" height="50" relative="1" as="geometry">
            <mxPoint x="160" y="180" as="sourcePoint" />
            <mxPoint x="170" y="170" as="targetPoint" />
          </mxGeometry>
        </mxCell>
        <mxCell id="Wc6JHS-sNSg-qs_0vJ1B-23" value="" style="endArrow=none;html=1;rounded=0;strokeWidth=2;strokeColor=#2A3244;" edge="1" parent="1">
          <mxGeometry width="50" height="50" relative="1" as="geometry">
            <mxPoint x="160" y="190" as="sourcePoint" />
            <mxPoint x="170" y="180" as="targetPoint" />
          </mxGeometry>
        </mxCell>
        <mxCell id="Wc6JHS-sNSg-qs_0vJ1B-24" value="" style="endArrow=none;html=1;rounded=0;strokeWidth=2;strokeColor=#2A3244;" edge="1" parent="1">
          <mxGeometry width="50" height="50" relative="1" as="geometry">
            <mxPoint x="160" y="200" as="sourcePoint" />
            <mxPoint x="170" y="190" as="targetPoint" />
          </mxGeometry>
        </mxCell>
        <mxCell id="Wc6JHS-sNSg-qs_0vJ1B-25" value="\(k\)" style="text;html=1;strokeColor=none;fillColor=none;align=center;verticalAlign=middle;whiteSpace=wrap;rounded=0;fontSize=20;fontColor=#E8C13F;" vertex="1" parent="1">
          <mxGeometry x="190" y="90" width="30" height="30" as="geometry" />
        </mxCell>
        <mxCell id="Wc6JHS-sNSg-qs_0vJ1B-26" value="\(b\)" style="text;html=1;strokeColor=none;fillColor=none;align=center;verticalAlign=middle;whiteSpace=wrap;rounded=0;fontSize=20;fontColor=#E8C13F;" vertex="1" parent="1">
          <mxGeometry x="190" y="200" width="30" height="30" as="geometry" />
        </mxCell>
        <mxCell id="Wc6JHS-sNSg-qs_0vJ1B-27" value="" style="endArrow=none;html=1;rounded=0;strokeWidth=2;strokeColor=#E8C13F;exitX=0.496;exitY=-0.04;exitDx=0;exitDy=0;exitPerimeter=0;" edge="1" parent="1" source="dFm8KE56Zzc0dGRcI-JT-1">
          <mxGeometry width="50" height="50" relative="1" as="geometry">
            <mxPoint x="280" y="110" as="sourcePoint" />
            <mxPoint x="280" y="80" as="targetPoint" />
          </mxGeometry>
        </mxCell>
        <mxCell id="Wc6JHS-sNSg-qs_0vJ1B-28" value="" style="endArrow=classic;html=1;rounded=0;strokeColor=#E8C13F;strokeWidth=2;" edge="1" parent="1">
          <mxGeometry width="50" height="50" relative="1" as="geometry">
            <mxPoint x="280" y="99" as="sourcePoint" />
            <mxPoint x="340" y="99" as="targetPoint" />
          </mxGeometry>
        </mxCell>
        <mxCell id="Wc6JHS-sNSg-qs_0vJ1B-29" value="\(x\)" style="text;html=1;strokeColor=none;fillColor=none;align=center;verticalAlign=middle;whiteSpace=wrap;rounded=0;fontSize=20;fontColor=#E8C13F;" vertex="1" parent="1">
          <mxGeometry x="340" y="82" width="30" height="30" as="geometry" />
        </mxCell>
        <mxCell id="Wc6JHS-sNSg-qs_0vJ1B-30" value="" style="whiteSpace=wrap;html=1;aspect=fixed;fillColor=#4579AC;strokeColor=#2A3244;fontSize=20;fontColor=#FFFFFF;" vertex="1" parent="1">
          <mxGeometry x="530" y="120" width="80" height="80" as="geometry" />
        </mxCell>
        <mxCell id="Wc6JHS-sNSg-qs_0vJ1B-31" value="" style="endArrow=classic;html=1;rounded=0;strokeColor=#E8C13F;strokeWidth=2;" edge="1" parent="1">
          <mxGeometry width="50" height="50" relative="1" as="geometry">
            <mxPoint x="520" y="140" as="sourcePoint" />
            <mxPoint x="490" y="140" as="targetPoint" />
          </mxGeometry>
        </mxCell>
        <mxCell id="Wc6JHS-sNSg-qs_0vJ1B-32" value="" style="endArrow=classic;html=1;rounded=0;strokeColor=#E8C13F;strokeWidth=2;" edge="1" parent="1">
          <mxGeometry width="50" height="50" relative="1" as="geometry">
            <mxPoint x="520" y="180" as="sourcePoint" />
            <mxPoint x="490" y="180" as="targetPoint" />
          </mxGeometry>
        </mxCell>
        <mxCell id="Wc6JHS-sNSg-qs_0vJ1B-33" value="" style="endArrow=classic;html=1;rounded=0;strokeColor=#E8C13F;strokeWidth=2;" edge="1" parent="1">
          <mxGeometry width="50" height="50" relative="1" as="geometry">
            <mxPoint x="620" y="160" as="sourcePoint" />
            <mxPoint x="650" y="160" as="targetPoint" />
          </mxGeometry>
        </mxCell>
        <mxCell id="Wc6JHS-sNSg-qs_0vJ1B-34" value="\(k(x-x_0)\)" style="text;html=1;strokeColor=none;fillColor=none;align=center;verticalAlign=middle;whiteSpace=wrap;rounded=0;fontSize=20;fontColor=#E8C13F;" vertex="1" parent="1">
          <mxGeometry x="370" y="124" width="120" height="30" as="geometry" />
        </mxCell>
        <mxCell id="Wc6JHS-sNSg-qs_0vJ1B-35" value="\(x_0\)" style="text;html=1;strokeColor=none;fillColor=none;align=center;verticalAlign=middle;whiteSpace=wrap;rounded=0;fontSize=20;fontColor=#E8C13F;" vertex="1" parent="1">
          <mxGeometry x="265" y="60" width="30" height="20" as="geometry" />
        </mxCell>
        <mxCell id="Wc6JHS-sNSg-qs_0vJ1B-36" value="\(b\dot{x}\)" style="text;html=1;strokeColor=none;fillColor=none;align=center;verticalAlign=middle;whiteSpace=wrap;rounded=0;fontSize=20;fontColor=#E8C13F;" vertex="1" parent="1">
          <mxGeometry x="440" y="163" width="50" height="30" as="geometry" />
        </mxCell>
        <mxCell id="Wc6JHS-sNSg-qs_0vJ1B-37" value="\(m\ddot{x}\)" style="text;html=1;strokeColor=none;fillColor=none;align=center;verticalAlign=middle;whiteSpace=wrap;rounded=0;fontSize=20;fontColor=#E8C13F;" vertex="1" parent="1">
          <mxGeometry x="650" y="145" width="50" height="30" as="geometry" />
        </mxCell>
      </root>
    </mxGraphModel>
  </diagram>
</mxfile>
